<svg id="Layer_1" data-name="Layer 1" xmlns="http://www.w3.org/2000/svg" viewBox="0 0 317.99 87"><defs><style>.cls-1{fill:#fff;}</style></defs><path class="cls-1" d="M278.06,418.15V407.27a1.81,1.81,0,1,0,0-3.62,9.07,9.07,0,0,0-9.06,9.06v3.63a5.44,5.44,0,0,0,5.44,5.43h3.62a1.81,1.81,0,1,0,0-3.62Z" transform="translate(-269 -378.27)"/><path class="cls-1" d="M346.94,403.65a1.81,1.81,0,0,0,0,3.62v10.88a1.81,1.81,0,0,0,0,3.62h3.62a5.44,5.44,0,0,0,5.44-5.43v-3.63A9.07,9.07,0,0,0,346.94,403.65Z" transform="translate(-269 -378.27)"/><path class="cls-1" d="M299.81,454.4a1.81,1.81,0,0,0-1.81,1.81H287.12a1.81,1.81,0,0,0-3.62,0v3.63a5.44,5.44,0,0,0,5.44,5.43h7.25a5.44,5.44,0,0,0,5.44-5.43v-3.63A1.82,1.82,0,0,0,299.81,454.4Z" transform="translate(-269 -378.27)"/><path class="cls-1" d="M339.69,454.4a1.82,1.82,0,0,0-1.82,1.81H327a1.81,1.81,0,0,0-3.62,0v3.63a5.43,5.43,0,0,0,5.43,5.43h7.25a5.44,5.44,0,0,0,5.44-5.43v-3.63A1.81,1.81,0,0,0,339.69,454.4Z" transform="translate(-269 -378.27)"/><path class="cls-1" d="M339.69,378.27H285.31a9.07,9.07,0,0,0-9.06,9.07V449a9.06,9.06,0,0,0,9.06,9.06h54.38a9.06,9.06,0,0,0,9.06-9.06V387.34A9.07,9.07,0,0,0,339.69,378.27Zm-47.13,7.25h39.88a5.44,5.44,0,0,1,0,10.88H292.56a5.44,5.44,0,0,1,0-10.88Zm0,61.63a5.44,5.44,0,1,1,5.44-5.44A5.44,5.44,0,0,1,292.56,447.15Zm39.88,0a5.44,5.44,0,1,1,5.43-5.44A5.45,5.45,0,0,1,332.44,447.15Zm9.06-23.56a5.44,5.44,0,0,1-5.44,5.43H288.94a5.44,5.44,0,0,1-5.44-5.43V405.46a5.45,5.45,0,0,1,5.44-5.44h47.12a5.45,5.45,0,0,1,5.44,5.44v18.13Z" transform="translate(-269 -378.27)"/><path class="cls-1" d="M387.7,452.44V391.11h21.17a39.76,39.76,0,0,1,10.28,1.15,19.6,19.6,0,0,1,7,3.26,12.81,12.81,0,0,1,4,5.13,17.27,17.27,0,0,1,1.27,6.79,13.28,13.28,0,0,1-.64,4.14,11.83,11.83,0,0,1-2,3.68,14.61,14.61,0,0,1-3.39,3.12,20.69,20.69,0,0,1-4.9,2.38q12.64,2.83,12.64,13.65a17.36,17.36,0,0,1-1.49,7.21,15.94,15.94,0,0,1-4.32,5.71,20.61,20.61,0,0,1-7,3.75,30.42,30.42,0,0,1-9.5,1.36Zm11.41-34.78h9.12q5.81,0,8.82-2.12t3-6.74c0-3.2-.9-5.47-2.71-6.83s-4.64-2-8.48-2h-9.76Zm0,7.89v18h11.58a15.94,15.94,0,0,0,5.32-.76,9.22,9.22,0,0,0,3.44-2,7.41,7.41,0,0,0,1.86-3,11,11,0,0,0,.58-3.6,9.44,9.44,0,0,0-.64-3.58,6.74,6.74,0,0,0-2-2.72,9.45,9.45,0,0,0-3.48-1.72,19.45,19.45,0,0,0-5.13-.59Z" transform="translate(-269 -378.27)"/><path class="cls-1" d="M467.65,443.24a14.94,14.94,0,0,0,5.91-1.11A12.34,12.34,0,0,0,478,439a13.43,13.43,0,0,0,2.75-4.84,19.76,19.76,0,0,0,1-6.36V391.11H493.1v36.73A28.33,28.33,0,0,1,491.34,438a22.53,22.53,0,0,1-13.09,13.28,30.67,30.67,0,0,1-21.2,0,22.89,22.89,0,0,1-8-5.26,23.14,23.14,0,0,1-5.05-8,28.33,28.33,0,0,1-1.76-10.11V391.11h11.41V427.8a19.8,19.8,0,0,0,1,6.36,13.89,13.89,0,0,0,2.73,4.86,12,12,0,0,0,4.39,3.11A15,15,0,0,0,467.65,443.24Z" transform="translate(-269 -378.27)"/><path class="cls-1" d="M537.58,402.27a3.1,3.1,0,0,1-1.08,1.31A2.74,2.74,0,0,1,535,404a3.71,3.71,0,0,1-1.91-.66c-.71-.43-1.54-.92-2.5-1.46a20.52,20.52,0,0,0-3.37-1.46,14.15,14.15,0,0,0-4.56-.66,13.49,13.49,0,0,0-4.14.57,9.14,9.14,0,0,0-3,1.59,6.52,6.52,0,0,0-1.8,2.44,8.14,8.14,0,0,0-.59,3.12,5.39,5.39,0,0,0,1.21,3.6,9.77,9.77,0,0,0,3.2,2.46,29.77,29.77,0,0,0,4.54,1.83c1.69.54,3.43,1.11,5.19,1.72a47.63,47.63,0,0,1,5.2,2.12,18,18,0,0,1,4.54,3.05,14.06,14.06,0,0,1,3.2,4.52,15.76,15.76,0,0,1,1.21,6.49,21.29,21.29,0,0,1-1.42,7.78,18.07,18.07,0,0,1-4.16,6.32,19.59,19.59,0,0,1-6.68,4.24,24.63,24.63,0,0,1-9,1.55,28.52,28.52,0,0,1-5.77-.58,29.86,29.86,0,0,1-5.45-1.63,28.52,28.52,0,0,1-4.88-2.54,24.52,24.52,0,0,1-4.05-3.31l3.31-5.47a4.13,4.13,0,0,1,1.12-1,2.75,2.75,0,0,1,1.47-.4,4.06,4.06,0,0,1,2.29.87c.82.58,1.78,1.22,2.9,1.93a22.72,22.72,0,0,0,4,1.93,15.23,15.23,0,0,0,5.45.87q4.88,0,7.54-2.31a8.3,8.3,0,0,0,2.68-6.64,6.22,6.22,0,0,0-1.21-3.95,9.94,9.94,0,0,0-3.2-2.56,24.27,24.27,0,0,0-4.54-1.76c-1.7-.48-3.42-1-5.18-1.57a46.22,46.22,0,0,1-5.17-2,16.73,16.73,0,0,1-4.54-3.09,14.28,14.28,0,0,1-3.2-4.77,18.15,18.15,0,0,1-1.21-7.07,16.91,16.91,0,0,1,5.24-12.17,19.24,19.24,0,0,1,6.3-3.94,22.88,22.88,0,0,1,8.52-1.49,28.62,28.62,0,0,1,10,1.7,22.54,22.54,0,0,1,7.8,4.75Z" transform="translate(-269 -378.27)"/><path class="cls-1" d="M583.09,402.27a3.1,3.1,0,0,1-1.08,1.31,2.76,2.76,0,0,1-1.46.38,3.71,3.71,0,0,1-1.91-.66c-.71-.43-1.54-.92-2.5-1.46a20.52,20.52,0,0,0-3.37-1.46,14.15,14.15,0,0,0-4.56-.66,13.45,13.45,0,0,0-4.14.57,9.14,9.14,0,0,0-3,1.59,6.42,6.42,0,0,0-1.8,2.44,8,8,0,0,0-.59,3.12,5.43,5.43,0,0,0,1.2,3.6,9.92,9.92,0,0,0,3.21,2.46,30.06,30.06,0,0,0,4.53,1.83q2.55.81,5.2,1.72a47.63,47.63,0,0,1,5.2,2.12,17.93,17.93,0,0,1,4.53,3.05,13.93,13.93,0,0,1,3.21,4.52,15.77,15.77,0,0,1,1.2,6.49,21.08,21.08,0,0,1-1.42,7.78,17.91,17.91,0,0,1-4.15,6.32,19.68,19.68,0,0,1-6.68,4.24,24.64,24.64,0,0,1-9,1.55,28.42,28.42,0,0,1-5.76-.58,29.63,29.63,0,0,1-5.45-1.63,28.52,28.52,0,0,1-4.88-2.54,24.52,24.52,0,0,1-4.05-3.31l3.31-5.47a4.13,4.13,0,0,1,1.12-1,2.74,2.74,0,0,1,1.46-.4,4,4,0,0,1,2.29.87c.82.58,1.79,1.22,2.91,1.93a23,23,0,0,0,3.94,1.93,15.23,15.23,0,0,0,5.45.87q4.88,0,7.55-2.31a8.33,8.33,0,0,0,2.67-6.64,6.22,6.22,0,0,0-1.2-3.95,9.88,9.88,0,0,0-3.21-2.56,24.16,24.16,0,0,0-4.53-1.76c-1.7-.48-3.43-1-5.18-1.57a45.47,45.47,0,0,1-5.17-2,16.73,16.73,0,0,1-4.54-3.09,14.14,14.14,0,0,1-3.2-4.77A18.15,18.15,0,0,1,548,408a16.8,16.8,0,0,1,5.24-12.17,19.3,19.3,0,0,1,6.29-3.94,22.93,22.93,0,0,1,8.53-1.49,28.66,28.66,0,0,1,10,1.7,22.54,22.54,0,0,1,7.8,4.75Z" transform="translate(-269 -378.27)"/></svg>