<svg xmlns="http://www.w3.org/2000/svg" viewBox="0 0 242.5 70.16"><defs><style>.cls-1{fill:#fff;}</style></defs><g id="Layer_2" data-name="Layer 2"><g id="Layer_1-2" data-name="Layer 1"><path class="cls-1" d="M30,69H0V1.17H29.51q9.54,0,15.14,4.56a15.13,15.13,0,0,1,5.59,12.36,14.4,14.4,0,0,1-3.64,9.73,14.47,14.47,0,0,1-9.1,5v.38A17.24,17.24,0,0,1,49,38.3a15.49,15.49,0,0,1,4.51,11.28q0,9-6.3,14.19T30,69ZM14.19,11.75V29.37h10.2q5.68,0,8.79-2.37a7.94,7.94,0,0,0,3.1-6.7A7.71,7.71,0,0,0,33.55,14q-2.71-2.23-7.7-2.23Zm0,46.67H26.41c4.11,0,7.23-.86,9.38-2.57A8.9,8.9,0,0,0,39,48.45a8.52,8.52,0,0,0-3.32-7.24q-3.31-2.49-9.61-2.49H14.19Z"/><path class="cls-1" d="M75.76,1.17V43.61q0,6.63,3.73,10.51T90,58q6.72,0,10.45-3.87t3.74-10.51V1.17h14.19V45q0,11.28-7.73,18.21T90,70.16q-13,0-20.71-6.93T61.56,45V1.17Z"/><path class="cls-1" d="M127.12,49.67H140.8a9,9,0,0,0,4.39,6.7,17.2,17.2,0,0,0,9.61,2.56A16,16,0,0,0,164,56.51a7.22,7.22,0,0,0,3.55-6.18A6.39,6.39,0,0,0,164.91,45q-2.64-2-8.79-3.38l-8.84-1.93q-18.66-4-18.65-18.94a18.26,18.26,0,0,1,7.26-15Q143.15,0,154.57,0q11.75,0,18.75,5.57a18.5,18.5,0,0,1,7.19,14.83h-13.3a8.76,8.76,0,0,0-3.78-6.75,14.86,14.86,0,0,0-8.82-2.47,14.26,14.26,0,0,0-8.48,2.31,7.12,7.12,0,0,0-3.22,6.06,6,6,0,0,0,2.61,5q2.61,1.92,8.48,3.29l8.23,1.74q10.2,2.16,14.85,6.74t4.65,12.34a18.84,18.84,0,0,1-7.42,15.67q-7.42,5.81-20.07,5.8-12.27,0-19.53-5.47A18.66,18.66,0,0,1,127.12,49.67Z"/><path class="cls-1" d="M187.89,49.67h13.67a9,9,0,0,0,4.4,6.7,17.18,17.18,0,0,0,9.61,2.56,16,16,0,0,0,9.19-2.42,7.23,7.23,0,0,0,3.54-6.18A6.37,6.37,0,0,0,225.67,45q-2.62-2-8.79-3.38l-8.83-1.93q-18.66-4-18.66-18.94a18.26,18.26,0,0,1,7.26-15Q203.91,0,215.33,0q11.76,0,18.75,5.57a18.47,18.47,0,0,1,7.19,14.83H228a8.7,8.7,0,0,0-3.78-6.75,14.82,14.82,0,0,0-8.81-2.47,14.21,14.21,0,0,0-8.48,2.31,7.1,7.1,0,0,0-3.22,6.06,6,6,0,0,0,2.61,5c1.74,1.28,4.56,2.38,8.48,3.29L223,29.61q10.2,2.16,14.85,6.74t4.66,12.34a18.85,18.85,0,0,1-7.43,15.67q-7.42,5.81-20.07,5.8-12.25,0-19.52-5.47A18.66,18.66,0,0,1,187.89,49.67Z"/></g></g></svg>